<?xml version="1.0" encoding="UTF-8" standalone="no"?>
<!-- Created with Inkscape (http://www.inkscape.org/) -->

<svg
   xmlns:dc="http://purl.org/dc/elements/1.1/"
   xmlns:cc="http://creativecommons.org/ns#"
   xmlns:rdf="http://www.w3.org/1999/02/22-rdf-syntax-ns#"
   xmlns:svg="http://www.w3.org/2000/svg"
   xmlns="http://www.w3.org/2000/svg"
   xmlns:sodipodi="http://sodipodi.sourceforge.net/DTD/sodipodi-0.dtd"
   xmlns:inkscape="http://www.inkscape.org/namespaces/inkscape"
   width="192"
   height="192"
   viewBox="0 0 50.799999 50.800001"
   version="1.1"
   id="svg16"
   inkscape:version="0.92.2 (5c3e80d, 2017-08-06)"
   sodipodi:docname="APP-launcher-192px.svg"
   inkscape:export-filename="D:\AndroidStudioProjects\master\Heartrate_Monitor\app\original_graphics\APP-launcher-192px.png"
   inkscape:export-xdpi="96"
   inkscape:export-ydpi="96">
  <defs
     id="defs10" />
  <sodipodi:namedview
     id="base"
     pagecolor="#ffffff"
     bordercolor="#666666"
     borderopacity="1.0"
     inkscape:pageopacity="0"
     inkscape:pageshadow="2"
     inkscape:zoom="2.8"
     inkscape:cx="50.219756"
     inkscape:cy="99.592388"
     inkscape:document-units="px"
     inkscape:current-layer="layer1"
     showgrid="false"
     units="px"
     inkscape:snap-page="false"
     inkscape:snap-object-midpoints="true"
     inkscape:snap-center="true"
     inkscape:snap-text-baseline="true"
     inkscape:snap-midpoints="true"
     inkscape:snap-smooth-nodes="true"
     inkscape:snap-intersection-paths="true"
     inkscape:snap-bbox="true"
     inkscape:bbox-paths="true"
     inkscape:bbox-nodes="true"
     inkscape:snap-bbox-edge-midpoints="true"
     inkscape:snap-bbox-midpoints="true"
     inkscape:object-nodes="false"
     inkscape:window-width="1920"
     inkscape:window-height="1017"
     inkscape:window-x="1672"
     inkscape:window-y="-8"
     inkscape:window-maximized="1" />
  <metadata
     id="metadata13">
    <rdf:RDF>
      <cc:Work
         rdf:about="">
        <dc:format>image/svg+xml</dc:format>
        <dc:type
           rdf:resource="http://purl.org/dc/dcmitype/StillImage" />
        <dc:title />
      </cc:Work>
    </rdf:RDF>
  </metadata>
  <g
     inkscape:label="Ebene 1"
     inkscape:groupmode="layer"
     id="layer1"
     transform="translate(0,-246.19998)">
    <g
       id="g5360"
       transform="matrix(0.16399592,0,0,0.17902616,1.8520833,270.59129)">
      <path
         d="m 142.657,51.487 c 0,4.277 -0.67,8.513 -2.01,12.602 -6.612,29.724 -63.753,65.918 -66.18,67.435 -0.506,0.322 -1.084,0.475 -1.659,0.475 -0.579,0 -1.154,-0.152 -1.663,-0.475 -1.159,-0.725 -28.564,-18.043 -48,-38.562 -1.178,-1.248 -1.129,-3.228 0.125,-4.402 1.254,-1.176 3.224,-1.127 4.409,0.127 16.224,17.135 38.864,32.4 45.13,36.499 9.456,-6.187 56.3,-37.923 61.835,-62.74 1.206,-3.754 1.778,-7.334 1.778,-10.952 0,-12.589 -6.856,-24.198 -17.891,-30.314 -5.103,-2.801 -10.875,-4.29 -16.696,-4.29 -10.327,0 -20.033,4.558 -26.634,12.52 -0.597,0.712 -1.471,1.129 -2.399,1.129 v 0 c -0.922,0 -1.808,-0.405 -2.398,-1.129 -6.616,-7.956 -16.332,-12.52 -26.656,-12.52 -5.812,0 -11.587,1.483 -16.706,4.29 -11.03,6.103 -17.884,17.724 -17.884,30.307 0,3.611 0.576,7.191 1.711,10.656 0.728,3.242 2.18,6.558 4.144,10.028 h 20.871 l 6.68,-11.183 c 0.548,-0.922 1.538,-1.495 2.618,-1.513 0.965,-0.125 2.083,0.511 2.673,1.422 L 58.785,77.73 70.963,44.815 c 0.451,-1.224 1.617,-2.04 2.92,-2.04 h 0.006 c 1.301,0 2.47,0.81 2.92,2.034 L 87.008,72.17 h 18.055 c 1.724,0 3.117,1.4 3.117,3.118 0,1.729 -1.394,3.117 -3.117,3.117 H 84.834 c -1.303,0 -2.466,-0.804 -2.929,-2.021 L 73.901,54.859 62.49,85.738 c -0.405,1.103 -1.41,1.889 -2.582,2.01 -0.119,0.013 -0.231,0.024 -0.344,0.024 -1.047,0 -2.037,-0.536 -2.618,-1.425 L 45.355,68.494 40.334,76.897 c -0.561,0.938 -1.577,1.522 -2.673,1.522 H 3.118 C 1.397,78.42 0,77.02 0,75.302 0,73.573 1.397,72.185 3.118,72.185 H 7.919 C 6.503,69.274 5.45,66.458 4.862,63.797 3.605,60.006 2.923,55.765 2.923,51.493 c 0,-14.851 8.09,-28.555 21.108,-35.771 6.046,-3.318 12.857,-5.063 19.716,-5.063 10.991,0 21.391,4.378 29.048,12.121 7.654,-7.743 18.042,-12.121 29.033,-12.121 6.875,0 13.67,1.745 19.717,5.063 13.044,7.207 21.112,20.92 21.112,35.765 z"
         id="path5358"
         inkscape:connector-curvature="0" />
    </g>
    <g
       transform="matrix(0.18903281,0,0,0.1791607,0.12266799,246.27081)"
       id="g5362" />
    <g
       transform="matrix(0.18903281,0,0,0.1791607,0.12266799,246.27081)"
       id="g5364" />
    <g
       transform="matrix(0.18903281,0,0,0.1791607,0.12266799,246.27081)"
       id="g5366" />
    <g
       transform="matrix(0.18903281,0,0,0.1791607,0.12266799,246.27081)"
       id="g5368" />
    <g
       transform="matrix(0.18903281,0,0,0.1791607,0.12266799,246.27081)"
       id="g5370" />
    <g
       transform="matrix(0.18903281,0,0,0.1791607,0.12266799,246.27081)"
       id="g5372" />
    <g
       transform="matrix(0.18903281,0,0,0.1791607,0.12266799,246.27081)"
       id="g5374" />
    <g
       transform="matrix(0.18903281,0,0,0.1791607,0.12266799,246.27081)"
       id="g5376" />
    <g
       transform="matrix(0.18903281,0,0,0.1791607,0.12266799,246.27081)"
       id="g5378" />
    <g
       transform="matrix(0.18903281,0,0,0.1791607,0.12266799,246.27081)"
       id="g5380" />
    <g
       transform="matrix(0.18903281,0,0,0.1791607,0.12266799,246.27081)"
       id="g5382" />
    <g
       transform="matrix(0.18903281,0,0,0.1791607,0.12266799,246.27081)"
       id="g5384" />
    <g
       transform="matrix(0.18903281,0,0,0.1791607,0.12266799,246.27081)"
       id="g5386" />
    <g
       transform="matrix(0.18903281,0,0,0.1791607,0.12266799,246.27081)"
       id="g5388" />
    <g
       transform="matrix(0.18903281,0,0,0.1791607,0.12266799,246.27081)"
       id="g5390" />
    <g
       id="g5245"
       transform="matrix(0.03731106,0,0,0.03690991,25.664583,271.76528)">
      <g
         id="g5243">
        <polygon
           points="292.091,97.364 292.091,292.091 153,292.091 153,319.909 319.909,319.909 319.909,97.364 "
           id="polygon5239" />
        <path
           d="M 612,306 C 612,137.004 474.995,0 306,0 137.004,0 0,137.004 0,306 0,474.995 137.004,612 306,612 474.995,612 612,474.995 612,306 Z M 27.818,306 C 27.818,152.36 152.36,27.818 306,27.818 459.64,27.818 584.182,152.36 584.182,306 584.182,459.64 459.64,584.182 306,584.182 152.36,584.182 27.818,459.64 27.818,306 Z"
           id="path5241"
           inkscape:connector-curvature="0" />
      </g>
    </g>
    <g
       transform="matrix(0.02712471,0,0,0.02537098,34.316653,246.28245)"
       id="g5247" />
    <g
       transform="matrix(0.02712471,0,0,0.02537098,34.316653,246.28245)"
       id="g5249" />
    <g
       transform="matrix(0.02712471,0,0,0.02537098,34.316653,246.28245)"
       id="g5251" />
    <g
       transform="matrix(0.02712471,0,0,0.02537098,34.316653,246.28245)"
       id="g5253" />
    <g
       transform="matrix(0.02712471,0,0,0.02537098,34.316653,246.28245)"
       id="g5255" />
    <g
       transform="matrix(0.02712471,0,0,0.02537098,34.316653,246.28245)"
       id="g5257" />
    <g
       transform="matrix(0.02712471,0,0,0.02537098,34.316653,246.28245)"
       id="g5259" />
    <g
       transform="matrix(0.02712471,0,0,0.02537098,34.316653,246.28245)"
       id="g5261" />
    <g
       transform="matrix(0.02712471,0,0,0.02537098,34.316653,246.28245)"
       id="g5263" />
    <g
       transform="matrix(0.02712471,0,0,0.02537098,34.316653,246.28245)"
       id="g5265" />
    <g
       transform="matrix(0.02712471,0,0,0.02537098,34.316653,246.28245)"
       id="g5267" />
    <g
       transform="matrix(0.02712471,0,0,0.02537098,34.316653,246.28245)"
       id="g5269" />
    <g
       transform="matrix(0.02712471,0,0,0.02537098,34.316653,246.28245)"
       id="g5271" />
    <g
       transform="matrix(0.02712471,0,0,0.02537098,34.316653,246.28245)"
       id="g5273" />
    <g
       transform="matrix(0.02712471,0,0,0.02537098,34.316653,246.28245)"
       id="g5275" />
    <g
       id="g3794"
       transform="matrix(0.36505089,0,0,0.40003003,26.334364,248.47662)"
       style="fill:#000000">
      <g
         id="_x33_2"
         style="fill:#000000">
        <g
           id="g3791"
           style="fill:#000000">
          <path
             d="m 38.542,24.475 c -1.397,0.48 -13.73,4.799 -16.44,7.982 -1.455,1.713 -2.158,3.891 -1.979,6.133 0.18,2.24 1.221,4.279 2.93,5.736 1.519,1.295 3.454,2.01 5.447,2.01 2.469,0 4.802,-1.08 6.402,-2.959 2.707,-3.188 4.998,-16.07 5.25,-17.529 0.074,-0.429 -0.082,-0.863 -0.414,-1.147 -0.331,-0.283 -0.784,-0.37 -1.196,-0.226 z M 33.029,41.78 c -2.047,2.407 -5.979,2.728 -8.385,0.671 -1.209,-1.031 -1.946,-2.471 -2.072,-4.058 -0.127,-1.587 0.37,-3.128 1.399,-4.339 1.52,-1.786 8.222,-4.652 13.375,-6.542 -1.028,5.29 -2.813,12.5 -4.317,14.268 z M 29.49,5.27 C 13.229,5.27 0,18.709 0,35.23 c 0,6.301 2.059,12.682 5.799,17.962 0.23,0.327 0.604,0.521 1.002,0.521 H 52.18 c 0.398,0 0.772,-0.192 1.002,-0.521 3.741,-5.28 5.801,-11.71 5.801,-18.103 C 58.98,18.647 45.752,5.27 29.49,5.27 Z M 51.537,51.25 H 7.444 C 4.224,46.484 2.457,40.82 2.457,35.229 c 0,-15.162 12.127,-27.5 27.033,-27.5 14.906,0 27.033,12.272 27.033,27.36 0,5.68 -1.766,11.394 -4.986,16.161 z M 29.49,12.352 c -11.419,0 -20.709,9.396 -20.709,20.945 0,0.681 0.55,1.23 1.229,1.23 0.68,0 1.229,-0.551 1.229,-1.23 0,-10.192 8.188,-18.484 18.252,-18.484 10.063,0 18.252,8.263 18.252,18.417 0,0.681 0.55,1.231 1.229,1.231 0.678,0 1.229,-0.551 1.229,-1.231 C 50.2,21.717 40.91,12.352 29.49,12.352 Z"
             id="path3789"
             inkscape:connector-curvature="0"
             style="fill:#000000" />
        </g>
      </g>
    </g>
    <g
       id="g3796"
       transform="matrix(0.45937176,0,0,0.4274274,-0.01115692,271.84365)" />
    <g
       id="g3798"
       transform="matrix(0.45937176,0,0,0.4274274,-0.01115692,271.84365)" />
    <g
       id="g3800"
       transform="matrix(0.45937176,0,0,0.4274274,-0.01115692,271.84365)" />
    <g
       id="g3802"
       transform="matrix(0.45937176,0,0,0.4274274,-0.01115692,271.84365)" />
    <g
       id="g3804"
       transform="matrix(0.45937176,0,0,0.4274274,-0.01115692,271.84365)" />
    <g
       id="g3806"
       transform="matrix(0.45937176,0,0,0.4274274,-0.01115692,271.84365)" />
    <g
       id="g3808"
       transform="matrix(0.45937176,0,0,0.4274274,-0.01115692,271.84365)" />
    <g
       id="g3810"
       transform="matrix(0.45937176,0,0,0.4274274,-0.01115692,271.84365)" />
    <g
       id="g3812"
       transform="matrix(0.45937176,0,0,0.4274274,-0.01115692,271.84365)" />
    <g
       id="g3814"
       transform="matrix(0.45937176,0,0,0.4274274,-0.01115692,271.84365)" />
    <g
       id="g3816"
       transform="matrix(0.45937176,0,0,0.4274274,-0.01115692,271.84365)" />
    <g
       id="g3818"
       transform="matrix(0.45937176,0,0,0.4274274,-0.01115692,271.84365)" />
    <g
       id="g3820"
       transform="matrix(0.45937176,0,0,0.4274274,-0.01115692,271.84365)" />
    <g
       id="g3822"
       transform="matrix(0.45937176,0,0,0.4274274,-0.01115692,271.84365)" />
    <g
       id="g3824"
       transform="matrix(0.45937176,0,0,0.4274274,-0.01115692,271.84365)" />
    <g
       id="g96"
       transform="matrix(0.45937176,0,0,0.4274274,-0.01115692,271.84365)" />
    <g
       transform="matrix(0.04797191,0,0,0.05061066,26.986408,271.84365)"
       id="g5079" />
    <g
       transform="matrix(0.04797191,0,0,0.05061066,26.986408,271.84365)"
       id="g5081" />
    <g
       transform="matrix(0.04797191,0,0,0.05061066,26.986408,271.84365)"
       id="g5083" />
    <g
       transform="matrix(0.04797191,0,0,0.05061066,26.986408,271.84365)"
       id="g5085" />
    <g
       transform="matrix(0.04797191,0,0,0.05061066,26.986408,271.84365)"
       id="g5087" />
    <g
       transform="matrix(0.04797191,0,0,0.05061066,26.986408,271.84365)"
       id="g5089" />
    <g
       transform="matrix(0.04797191,0,0,0.05061066,26.986408,271.84365)"
       id="g5091" />
    <g
       transform="matrix(0.04797191,0,0,0.05061066,26.986408,271.84365)"
       id="g5093" />
    <g
       transform="matrix(0.04797191,0,0,0.05061066,26.986408,271.84365)"
       id="g5095" />
    <g
       transform="matrix(0.04797191,0,0,0.05061066,26.986408,271.84365)"
       id="g5097" />
    <g
       transform="matrix(0.04797191,0,0,0.05061066,26.986408,271.84365)"
       id="g5099" />
    <g
       transform="matrix(0.04797191,0,0,0.05061066,26.986408,271.84365)"
       id="g5101" />
    <g
       transform="matrix(0.04797191,0,0,0.05061066,26.986408,271.84365)"
       id="g5103" />
    <g
       transform="matrix(0.04797191,0,0,0.05061066,26.986408,271.84365)"
       id="g5105" />
    <g
       transform="matrix(0.04797191,0,0,0.05061066,26.986408,271.84365)"
       id="g5107" />
    <g
       id="g5077"
       transform="matrix(0.04564796,0,0,0.04684264,2.2202257,248.57206)">
      <g
         id="g5075">
        <path
           d="m 258.188,250.537 v -107.1 c 0,-5.737 -3.825,-9.562 -9.562,-9.562 -5.737,0 -9.562,3.825 -9.562,9.562 v 107.1 c -11.475,3.825 -19.125,15.301 -19.125,26.775 0,11.474 7.65,22.95 19.125,26.775 v 30.6 c 0,5.737 3.825,9.562 9.562,9.562 5.737,0 9.562,-3.825 9.562,-9.562 v -30.6 c 11.475,-3.825 19.125,-15.301 19.125,-26.775 0,-11.474 -7.651,-22.95 -19.125,-26.775 z m -9.563,36.338 c -5.737,0 -9.562,-3.825 -9.562,-9.562 0,-5.737 3.825,-9.562 9.562,-9.562 5.737,0 9.562,3.825 9.562,9.562 0,5.737 -3.825,9.562 -9.562,9.562 z"
           id="path5071"
           inkscape:connector-curvature="0" />
        <path
           d="m 411.188,128.138 22.95,-22.95 13.388,13.388 13.387,-13.388 L 420.75,65.025 407.362,78.413 420.75,91.8 397.8,114.75 C 361.463,80.325 311.738,59.288 258.188,57.375 v -38.25 h 19.125 V 0 h -57.375 v 19.125 h 19.125 v 38.25 C 122.4,63.112 28.688,158.737 28.688,277.312 c 0,122.4 97.538,219.938 219.938,219.938 122.4,0 219.938,-97.537 219.938,-219.938 C 468.562,219.938 447.525,168.3 411.188,128.138 Z M 248.625,478.125 C 137.7,478.125 47.813,388.237 47.813,277.313 47.813,166.389 137.7,76.5 248.625,76.5 c 110.925,0 200.812,89.888 200.812,200.812 0,110.924 -89.887,200.813 -200.812,200.813 z"
           id="path5073"
           inkscape:connector-curvature="0" />
      </g>
    </g>
  </g>
</svg>
