<?xml version="1.0" encoding="UTF-8" standalone="no"?>
<!-- Generator: Adobe Illustrator 16.0.0, SVG Export Plug-In . SVG Version: 6.00 Build 0)  -->

<svg
   xmlns:dc="http://purl.org/dc/elements/1.1/"
   xmlns:cc="http://creativecommons.org/ns#"
   xmlns:rdf="http://www.w3.org/1999/02/22-rdf-syntax-ns#"
   xmlns:svg="http://www.w3.org/2000/svg"
   xmlns="http://www.w3.org/2000/svg"
   xmlns:sodipodi="http://sodipodi.sourceforge.net/DTD/sodipodi-0.dtd"
   xmlns:inkscape="http://www.inkscape.org/namespaces/inkscape"
   version="1.1"
   id="Capa_1"
   x="0px"
   y="0px"
   width="612px"
   height="612px"
   viewBox="0 0 612 612"
   style="enable-background:new 0 0 612 612;"
   xml:space="preserve"
   sodipodi:docname="clock-true-round.svg"
   inkscape:version="0.92.2 (5c3e80d, 2017-08-06)"><metadata
     id="metadata5282"><rdf:RDF><cc:Work
         rdf:about=""><dc:format>image/svg+xml</dc:format><dc:type
           rdf:resource="http://purl.org/dc/dcmitype/StillImage" /><dc:title></dc:title></cc:Work></rdf:RDF></metadata><defs
     id="defs5280" /><sodipodi:namedview
     pagecolor="#ffffff"
     bordercolor="#666666"
     borderopacity="1"
     objecttolerance="10"
     gridtolerance="10"
     guidetolerance="10"
     inkscape:pageopacity="0"
     inkscape:pageshadow="2"
     inkscape:window-width="1037"
     inkscape:window-height="789"
     id="namedview5278"
     showgrid="false"
     inkscape:snap-page="true"
     inkscape:zoom="0.77124183"
     inkscape:cx="227.13064"
     inkscape:cy="329.63951"
     inkscape:window-x="234"
     inkscape:window-y="52"
     inkscape:window-maximized="0"
     inkscape:current-layer="Capa_1" /><g
     id="g5245"
     transform="matrix(0.90254237,0,0,0.88983051,30.677966,34.898306)"
     style="fill:#00ff00"><g
       id="g5243"
       style="fill:#00ff00"><polygon
         points="153,319.909 319.909,319.909 319.909,97.364 292.091,97.364 292.091,292.091 153,292.091 "
         id="polygon5239"
         style="fill:#00ff00" /><path
         d="M 612,306 C 612,137.004 474.995,0 306,0 137.004,0 0,137.004 0,306 0,474.995 137.004,612 306,612 474.995,612 612,474.995 612,306 Z M 27.818,306 C 27.818,152.36 152.36,27.818 306,27.818 459.64,27.818 584.182,152.36 584.182,306 584.182,459.64 459.64,584.182 306,584.182 152.36,584.182 27.818,459.64 27.818,306 Z"
         id="path5241"
         inkscape:connector-curvature="0"
         style="fill:#00ff00" /></g></g><g
     id="g5247" /><g
     id="g5249" /><g
     id="g5251" /><g
     id="g5253" /><g
     id="g5255" /><g
     id="g5257" /><g
     id="g5259" /><g
     id="g5261" /><g
     id="g5263" /><g
     id="g5265" /><g
     id="g5267" /><g
     id="g5269" /><g
     id="g5271" /><g
     id="g5273" /><g
     id="g5275" /><g
     id="g93"
     style="fill:#000000"
     transform="matrix(10.416965,0,0,10.447752,-1.2088933,0)"><g
       id="g103"
       style="fill:#000000"><g
         id="g99"
         style="fill:#000000"><g
           id="g113"
           style="fill:#000000"><g
             id="g106"
             style="fill:#000000" /><g
             id="g118"
             style="fill:#000000"><path
               style="fill:#000000"
               d="M 4,0 C 1.784,0 0,1.784 0,4 v 50.982422 c 0,2.216 1.784,4 4,4 h 50.982422 c 2.216,0 4,-1.784 4,-4 V 4 c 0,-2.216 -1.784,-4 -4,-4 z M 5.265625,1.0605469 H 53.84375 c 2.216,0 4,1.784 4,4 V 53.810547 c 0,2.216 -1.784,4 -4,4 H 5.265625 c -2.216,0 -4,-1.784 -4,-4 V 5.0605469 c 0,-2.216 1.784,-4 4,-4 z"
               id="rect88"
               inkscape:connector-curvature="0" /></g></g></g></g></g></svg>