<?xml version="1.0" encoding="UTF-8" standalone="no"?>
<!-- Generator: Adobe Illustrator 16.0.0, SVG Export Plug-In . SVG Version: 6.00 Build 0)  -->

<svg
   xmlns:dc="http://purl.org/dc/elements/1.1/"
   xmlns:cc="http://creativecommons.org/ns#"
   xmlns:rdf="http://www.w3.org/1999/02/22-rdf-syntax-ns#"
   xmlns:svg="http://www.w3.org/2000/svg"
   xmlns="http://www.w3.org/2000/svg"
   xmlns:sodipodi="http://sodipodi.sourceforge.net/DTD/sodipodi-0.dtd"
   xmlns:inkscape="http://www.inkscape.org/namespaces/inkscape"
   version="1.1"
   id="Capa_1"
   x="0px"
   y="0px"
   width="142.657px"
   height="142.657px"
   viewBox="0 0 142.657 142.657"
   style="enable-background:new 0 0 142.657 142.657;"
   xml:space="preserve"
   sodipodi:docname="heartshape-false-round.svg"
   inkscape:version="0.92.2 (5c3e80d, 2017-08-06)"><metadata
     id="metadata5397"><rdf:RDF><cc:Work
         rdf:about=""><dc:format>image/svg+xml</dc:format><dc:type
           rdf:resource="http://purl.org/dc/dcmitype/StillImage" /><dc:title></dc:title></cc:Work></rdf:RDF></metadata><defs
     id="defs5395" /><sodipodi:namedview
     pagecolor="#ffffff"
     bordercolor="#666666"
     borderopacity="1"
     objecttolerance="10"
     gridtolerance="10"
     guidetolerance="10"
     inkscape:pageopacity="0"
     inkscape:pageshadow="2"
     inkscape:window-width="1168"
     inkscape:window-height="901"
     id="namedview5393"
     showgrid="false"
     inkscape:snap-page="false"
     inkscape:zoom="4.6791171"
     inkscape:cx="68.104538"
     inkscape:cy="73.606942"
     inkscape:window-x="105"
     inkscape:window-y="45"
     inkscape:window-maximized="0"
     inkscape:current-layer="Capa_1" /><g
     id="g5360"
     transform="matrix(0.9206003,0,0,0.99924903,5.9840349,1.564767)"
     style="fill:#ff0000"><path
       d="m 142.657,51.487 c 0,4.277 -0.67,8.513 -2.01,12.602 -6.612,29.724 -63.753,65.918 -66.18,67.435 -0.506,0.322 -1.084,0.475 -1.659,0.475 -0.579,0 -1.154,-0.152 -1.663,-0.475 -1.159,-0.725 -28.564,-18.043 -48,-38.562 -1.178,-1.248 -1.129,-3.228 0.125,-4.402 1.254,-1.176 3.224,-1.127 4.409,0.127 16.224,17.135 38.864,32.4 45.13,36.499 9.456,-6.187 56.3,-37.923 61.835,-62.74 1.206,-3.754 1.778,-7.334 1.778,-10.952 0,-12.589 -6.856,-24.198 -17.891,-30.314 -5.103,-2.801 -10.875,-4.29 -16.696,-4.29 -10.327,0 -20.033,4.558 -26.634,12.52 -0.597,0.712 -1.471,1.129 -2.399,1.129 v 0 c -0.922,0 -1.808,-0.405 -2.398,-1.129 -6.616,-7.956 -16.332,-12.52 -26.656,-12.52 -5.812,0 -11.587,1.483 -16.706,4.29 -11.03,6.103 -17.884,17.724 -17.884,30.307 0,3.611 0.576,7.191 1.711,10.656 0.728,3.242 2.18,6.558 4.144,10.028 h 20.871 l 6.68,-11.183 c 0.548,-0.922 1.538,-1.495 2.618,-1.513 0.965,-0.125 2.083,0.511 2.673,1.422 L 58.785,77.73 70.963,44.815 c 0.451,-1.224 1.617,-2.04 2.92,-2.04 h 0.006 c 1.301,0 2.47,0.81 2.92,2.034 L 87.008,72.17 h 18.055 c 1.724,0 3.117,1.4 3.117,3.118 0,1.729 -1.394,3.117 -3.117,3.117 H 84.834 c -1.303,0 -2.466,-0.804 -2.929,-2.021 L 73.901,54.859 62.49,85.738 c -0.405,1.103 -1.41,1.889 -2.582,2.01 -0.119,0.013 -0.231,0.024 -0.344,0.024 -1.047,0 -2.037,-0.536 -2.618,-1.425 L 45.355,68.494 40.334,76.897 c -0.561,0.938 -1.577,1.522 -2.673,1.522 H 3.118 C 1.397,78.42 0,77.02 0,75.302 0,73.573 1.397,72.185 3.118,72.185 H 7.919 C 6.503,69.274 5.45,66.458 4.862,63.797 3.605,60.006 2.923,55.765 2.923,51.493 c 0,-14.851 8.09,-28.555 21.108,-35.771 6.046,-3.318 12.857,-5.063 19.716,-5.063 10.991,0 21.391,4.378 29.048,12.121 7.654,-7.743 18.042,-12.121 29.033,-12.121 6.875,0 13.67,1.745 19.717,5.063 13.044,7.207 21.112,20.92 21.112,35.765 z"
       id="path5358"
       inkscape:connector-curvature="0"
       style="fill:#ff0000" /></g><g
     id="g5362" /><g
     id="g5364" /><g
     id="g5366" /><g
     id="g5368" /><g
     id="g5370" /><g
     id="g5372" /><g
     id="g5374" /><g
     id="g5376" /><g
     id="g5378" /><g
     id="g5380" /><g
     id="g5382" /><g
     id="g5384" /><g
     id="g5386" /><g
     id="g5388" /><g
     id="g5390" /><g
     id="g93"
     style="fill:#000000"
     transform="matrix(2.4174039,0,0,2.4193496,0.04187704,0.03777993)"><g
       id="g103"
       style="fill:#000000"><g
         id="g99"
         style="fill:#000000"><g
           id="g113"
           style="fill:#000000"><g
             id="g106"
             style="fill:#000000" /><g
             id="g118"
             style="fill:#000000"><path
               style="fill:#000000"
               d="M 4,0 C 1.784,0 0,1.784 0,4 v 50.982422 c 0,2.216 1.784,4 4,4 h 50.982422 c 2.216,0 4,-1.784 4,-4 V 4 c 0,-2.216 -1.784,-4 -4,-4 z M 5.265625,1.0605469 H 53.84375 c 2.216,0 4,1.784 4,4 V 53.810547 c 0,2.216 -1.784,4 -4,4 H 5.265625 c -2.216,0 -4,-1.784 -4,-4 V 5.0605469 c 0,-2.216 1.784,-4 4,-4 z"
               id="rect88"
               inkscape:connector-curvature="0" /></g></g></g></g></g></svg>