<?xml version="1.0" encoding="UTF-8" standalone="no"?>
<!-- Created with Inkscape (http://www.inkscape.org/) -->

<svg
   xmlns:dc="http://purl.org/dc/elements/1.1/"
   xmlns:cc="http://creativecommons.org/ns#"
   xmlns:rdf="http://www.w3.org/1999/02/22-rdf-syntax-ns#"
   xmlns:svg="http://www.w3.org/2000/svg"
   xmlns="http://www.w3.org/2000/svg"
   xmlns:sodipodi="http://sodipodi.sourceforge.net/DTD/sodipodi-0.dtd"
   xmlns:inkscape="http://www.inkscape.org/namespaces/inkscape"
   width="48"
   height="48"
   viewBox="0 0 12.7 12.699999"
   version="1.1"
   id="svg8"
   inkscape:version="0.92.2 (5c3e80d, 2017-08-06)"
   sodipodi:docname="reset-button.svg">
  <defs
     id="defs2" />
  <sodipodi:namedview
     id="base"
     pagecolor="#ffffff"
     bordercolor="#666666"
     borderopacity="1.0"
     inkscape:pageopacity="0"
     inkscape:pageshadow="2"
     inkscape:zoom="15.839192"
     inkscape:cx="25.314774"
     inkscape:cy="25.062087"
     inkscape:document-units="px"
     inkscape:current-layer="layer1"
     showgrid="false"
     inkscape:snap-bbox="true"
     units="px"
     inkscape:snap-bbox-midpoints="true"
     inkscape:window-width="1920"
     inkscape:window-height="1017"
     inkscape:window-x="1672"
     inkscape:window-y="-8"
     inkscape:window-maximized="1"
     inkscape:pagecheckerboard="false" />
  <metadata
     id="metadata5">
    <rdf:RDF>
      <cc:Work
         rdf:about="">
        <dc:format>image/svg+xml</dc:format>
        <dc:type
           rdf:resource="http://purl.org/dc/dcmitype/StillImage" />
        <dc:title></dc:title>
      </cc:Work>
    </rdf:RDF>
  </metadata>
  <g
     inkscape:label="Ebene 1"
     inkscape:groupmode="layer"
     id="layer1"
     transform="translate(0,-284.3)"
     style="display:inline">
    <g
       aria-label="Reset
Device"
       style="font-style:normal;font-weight:normal;font-size:3.52777767px;line-height:1.25;font-family:sans-serif;text-align:center;letter-spacing:0px;word-spacing:0px;text-anchor:middle;fill:#000000;fill-opacity:1;stroke:none;stroke-width:0.26458332"
       id="text177">
      <path
         d="M 3.8281897,289.7052 H 3.385495 L 2.5276662,288.68545 H 2.0470754 v 1.01975 H 1.706011 v -2.56487 h 0.7183023 q 0.232544,0 0.3875733,0.031 0.1550293,0.0293 0.2790527,0.1068 0.1395264,0.0879 0.217041,0.22221 0.079237,0.13264 0.079237,0.33762 0,0.27733 -0.1395264,0.46509 -0.1395263,0.18603 -0.3841281,0.28077 z m -0.7975396,-1.84313 q 0,-0.11024 -0.039619,-0.19464 -0.037896,-0.0861 -0.1274685,-0.1447 -0.07407,-0.05 -0.1756999,-0.0689 -0.1016303,-0.0207 -0.2394341,-0.0207 H 2.0470754 v 0.96807 h 0.3445095 q 0.1619195,0 0.2824979,-0.0276 0.1205783,-0.0293 0.2049831,-0.1068 0.077515,-0.0723 0.1136882,-0.16536 0.037896,-0.0947 0.037896,-0.23944 z"
         style="font-size:3.52777767px;line-height:1.25;text-align:center;text-anchor:middle;stroke-width:0.26458332"
         id="path181" />
      <path
         d="M 5.6609805,288.77675 H 4.2433237 q 0,0.17742 0.053399,0.31006 0.053399,0.13091 0.1464166,0.21531 0.089573,0.0827 0.2118733,0.12403 0.1240235,0.0413 0.2721626,0.0413 0.1963704,0 0.3944634,-0.0775 0.1998155,-0.0792 0.2842204,-0.15503 h 0.017226 v 0.35313 q -0.1636421,0.0689 -0.3341743,0.11541 -0.1705322,0.0465 -0.3582899,0.0465 -0.4788683,0 -0.7475857,-0.25839 -0.2687175,-0.2601 -0.2687175,-0.73725 0,-0.47197 0.2566596,-0.7493 0.2583822,-0.27733 0.6786838,-0.27733 0.3892958,0 0.5994466,0.22737 0.2118734,0.22738 0.2118734,0.64596 z M 5.3457543,288.5287 q -0.00172,-0.25494 -0.1291911,-0.39446 -0.125746,-0.13953 -0.3841281,-0.13953 -0.2601047,0 -0.415134,0.15331 -0.1533068,0.1533 -0.1739774,0.38068 z"
         style="font-size:3.52777767px;line-height:1.25;text-align:center;text-anchor:middle;stroke-width:0.26458332"
         id="path183" />
      <path
         d="m 7.5264998,289.15054 q 0,0.26355 -0.2187635,0.43236 -0.217041,0.16881 -0.594279,0.16881 -0.2135959,0 -0.3927408,-0.05 -0.1774225,-0.0517 -0.2980008,-0.11197 v -0.36346 h 0.017226 q 0.1533067,0.11541 0.3410644,0.18431 0.1877577,0.0672 0.3600125,0.0672 0.2135959,0 0.3341742,-0.0689 0.1205784,-0.0689 0.1205784,-0.21704 0,-0.11369 -0.065457,-0.17225 -0.065457,-0.0586 -0.251492,-0.0999 -0.068902,-0.0155 -0.1808675,-0.0362 -0.110243,-0.0207 -0.2015381,-0.0448 -0.2532145,-0.0672 -0.3600124,-0.19637 -0.1050755,-0.13092 -0.1050755,-0.3204 0,-0.11885 0.048231,-0.22393 0.049954,-0.10507 0.1498616,-0.18775 0.096463,-0.081 0.2446018,-0.12747 0.1498617,-0.0482 0.3341743,-0.0482 0.1722547,0 0.3479546,0.0431 0.1774224,0.0413 0.2945556,0.10163 v 0.34623 h -0.017225 q -0.1240235,-0.0913 -0.3014459,-0.15331 -0.1774224,-0.0637 -0.3479546,-0.0637 -0.1774224,0 -0.2997233,0.0689 -0.1223009,0.0672 -0.1223009,0.20154 0,0.11886 0.07407,0.17915 0.072347,0.0603 0.2342664,0.0982 0.089573,0.0207 0.1998156,0.0413 0.1119656,0.0207 0.1860351,0.0379 0.2256538,0.0517 0.3479547,0.17742 0.1223008,0.12747 0.1223008,0.33762 z"
         style="font-size:3.52777767px;line-height:1.25;text-align:center;text-anchor:middle;stroke-width:0.26458332"
         id="path185" />
      <path
         d="M 9.6021696,288.77675 H 8.1845128 q 0,0.17742 0.053399,0.31006 0.053399,0.13091 0.1464165,0.21531 0.089572,0.0827 0.2118734,0.12403 0.1240234,0.0413 0.2721625,0.0413 0.1963705,0 0.3944635,-0.0775 0.1998155,-0.0792 0.2842203,-0.15503 h 0.017226 v 0.35313 q -0.163642,0.0689 -0.3341743,0.11541 -0.1705322,0.0465 -0.3582899,0.0465 -0.4788682,0 -0.7475857,-0.25839 -0.2687174,-0.2601 -0.2687174,-0.73725 0,-0.47197 0.2566596,-0.7493 0.2583822,-0.27733 0.6786838,-0.27733 0.3892958,0 0.5994466,0.22737 0.2118734,0.22738 0.2118734,0.64596 z M 9.2869433,288.5287 q -0.00172,-0.25494 -0.1291911,-0.39446 -0.1257459,-0.13953 -0.3841281,-0.13953 -0.2601047,0 -0.415134,0.15331 -0.1533067,0.1533 -0.1739773,0.38068 z"
         style="font-size:3.52777767px;line-height:1.25;text-align:center;text-anchor:middle;stroke-width:0.26458332"
         id="path187" />
      <path
         d="m 11.092173,289.68797 q -0.0913,0.0241 -0.199815,0.0396 -0.106798,0.0155 -0.191203,0.0155 -0.294556,0 -0.447862,-0.15848 -0.153307,-0.15847 -0.153307,-0.50815 v -1.02319 H 9.8812222 v -0.27217 h 0.2187638 v -0.55293 h 0.323839 v 0.55293 h 0.668348 v 0.27217 h -0.668348 v 0.87677 q 0,0.15159 0.0069,0.23772 0.0069,0.0844 0.04823,0.15847 0.0379,0.0689 0.103353,0.10163 0.06718,0.031 0.203261,0.031 0.07924,0 0.165364,-0.0224 0.08613,-0.0241 0.124024,-0.0396 h 0.01723 z"
         style="font-size:3.52777767px;line-height:1.25;text-align:center;text-anchor:middle;stroke-width:0.26458332"
         id="path189" />
      <path
         d="m 2.863563,292.83507 q 0,0.34968 -0.1533067,0.6339 -0.1515842,0.28422 -0.4047987,0.44097 -0.1756999,0.10852 -0.3927409,0.15675 -0.2153185,0.0482 -0.5684408,0.0482 H 0.69659801 v -2.56487 H 1.3373857 q 0.3755154,0 0.5960016,0.0551 0.2222086,0.0534 0.3755153,0.14814 0.2618273,0.16364 0.4082439,0.4358 0.1464165,0.27217 0.1464165,0.64596 z m -0.3565674,-0.005 q 0,-0.30144 -0.1050754,-0.50815 -0.1050754,-0.20671 -0.3135037,-0.32556 -0.1515842,-0.0861 -0.3221164,-0.11886 -0.1705322,-0.0344 -0.4082438,-0.0344 H 1.0376625 v 1.97921 h 0.3203938 q 0.2463243,0 0.4289144,-0.0362 0.1843126,-0.0362 0.3376193,-0.13436 0.1912028,-0.1223 0.285943,-0.32212 0.096463,-0.19981 0.096463,-0.49954 z"
         style="font-size:3.52777767px;line-height:1.25;text-align:center;text-anchor:middle;stroke-width:0.26458332"
         id="path191" />
      <path
         d="M 5.0029672,293.18647 H 3.5853105 q 0,0.17742 0.053399,0.31006 0.053399,0.13091 0.1464166,0.21532 0.089573,0.0827 0.2118734,0.12402 0.1240234,0.0413 0.2721625,0.0413 0.1963704,0 0.3944634,-0.0775 0.1998155,-0.0792 0.2842204,-0.15503 h 0.017225 v 0.35312 q -0.1636421,0.0689 -0.3341743,0.11541 -0.1705322,0.0465 -0.3582899,0.0465 -0.4788683,0 -0.7475857,-0.25838 -0.2687174,-0.26011 -0.2687174,-0.73725 0,-0.47198 0.2566596,-0.74931 0.2583821,-0.27733 0.6786837,-0.27733 0.3892958,0 0.5994466,0.22737 0.2118734,0.22738 0.2118734,0.64596 z M 4.687741,292.93842 q -0.00172,-0.25493 -0.1291911,-0.39446 -0.125746,-0.13953 -0.3841281,-0.13953 -0.2601047,0 -0.415134,0.15331 -0.1533068,0.15331 -0.1739773,0.38068 z"
         style="font-size:3.52777767px;line-height:1.25;text-align:center;text-anchor:middle;stroke-width:0.26458332"
         id="path193" />
      <path
         d="m 7.1578743,292.19084 -0.7785915,1.92408 H 6.0537213 l -0.773424,-1.92408 h 0.3513998 l 0.5960015,1.53134 0.5908338,-1.53134 z"
         style="font-size:3.52777767px;line-height:1.25;text-align:center;text-anchor:middle;stroke-width:0.26458332"
         id="path195" />
      <path
         d="M 7.9295754,291.86872 H 7.5643953 v -0.3359 h 0.3651801 z m -0.020671,2.2462 h -0.323839 v -1.92408 h 0.323839 z"
         style="font-size:3.52777767px;line-height:1.25;text-align:center;text-anchor:middle;stroke-width:0.26458332"
         id="path197" />
      <path
         d="m 9.9759623,293.99434 q -0.1619195,0.0775 -0.308336,0.12058 -0.1446941,0.0431 -0.3083361,0.0431 -0.2084283,0 -0.3824056,-0.0603 -0.1739773,-0.062 -0.2980007,-0.18604 -0.125746,-0.12402 -0.1946479,-0.3135 -0.068902,-0.18948 -0.068902,-0.4427 0,-0.47197 0.2583821,-0.74069 0.2601047,-0.26872 0.685574,-0.26872 0.1653646,0 0.323839,0.0465 0.1601969,0.0465 0.2928331,0.11369 v 0.36001 h -0.017226 q -0.1481391,-0.11541 -0.3066135,-0.17742 -0.1567518,-0.062 -0.3066135,-0.062 -0.2756076,0 -0.4358045,0.18603 -0.1584744,0.18431 -0.1584744,0.5426 0,0.34796 0.1550293,0.53572 0.1567518,0.18603 0.4392496,0.18603 0.098185,0 0.1998156,-0.0258 0.1016303,-0.0258 0.18259,-0.0672 0.070624,-0.0362 0.1326362,-0.0758 0.062012,-0.0413 0.098185,-0.0706 h 0.017226 z"
         style="font-size:3.52777767px;line-height:1.25;text-align:center;text-anchor:middle;stroke-width:0.26458332"
         id="path199" />
      <path
         d="m 12.003401,293.18647 h -1.417657 q 0,0.17742 0.0534,0.31006 0.0534,0.13091 0.146417,0.21532 0.08957,0.0827 0.211873,0.12402 0.124024,0.0413 0.272163,0.0413 0.19637,0 0.394463,-0.0775 0.199816,-0.0792 0.284221,-0.15503 h 0.01722 v 0.35312 q -0.163642,0.0689 -0.334174,0.11541 -0.170532,0.0465 -0.35829,0.0465 -0.478868,0 -0.747586,-0.25838 -0.268717,-0.26011 -0.268717,-0.73725 0,-0.47198 0.256659,-0.74931 0.258383,-0.27733 0.678684,-0.27733 0.389296,0 0.599447,0.22737 0.211873,0.22738 0.211873,0.64596 z m -0.315226,-0.24805 q -0.0017,-0.25493 -0.129191,-0.39446 -0.125746,-0.13953 -0.384128,-0.13953 -0.260105,0 -0.415134,0.15331 -0.153307,0.15331 -0.173978,0.38068 z"
         style="font-size:3.52777767px;line-height:1.25;text-align:center;text-anchor:middle;stroke-width:0.26458332"
         id="path201" />
    </g>
    <flowRoot
       xml:space="preserve"
       id="flowRoot14"
       style="font-style:normal;font-weight:normal;font-size:40px;line-height:1.25;font-family:sans-serif;letter-spacing:0px;word-spacing:0px;fill:#000000;fill-opacity:1;stroke:none"
       transform="matrix(0.26458333,0,0,0.26458333,0,201)"><flowRegion
         id="flowRegion16"><rect
           id="rect18"
           width="368.70569"
           height="119.198"
           x="-6.0609155"
           y="16.352333" /></flowRegion><flowPara
         id="flowPara20"></flowPara></flowRoot>    <flowRoot
       xml:space="preserve"
       id="flowRoot115"
       style="font-style:normal;font-weight:normal;font-size:40px;line-height:1.25;font-family:sans-serif;letter-spacing:0px;word-spacing:0px;fill:#000000;fill-opacity:1;stroke:none"
       transform="matrix(0.26458332,0,0,0.26458332,0,265.25)"><flowRegion
         id="flowRegion117"><rect
           id="rect119"
           width="383.35291"
           height="162.12949"
           x="-51.012703"
           y="-23.946737" /></flowRegion><flowPara
         id="flowPara121"></flowPara></flowRoot>    <g
       id="g93"
       style="fill:#000000"
       transform="matrix(0.21531838,0,0,0.21531838,0,284.30001)">
      <g
         id="g103"
         style="fill:#000000">
        <g
           id="g99"
           style="fill:#000000">
          <g
             id="g113"
             style="fill:#000000">
            <g
               id="g106"
               style="fill:#000000" />
            <g
               id="g118"
               style="fill:#000000">
              <path
                 style="fill:#000000"
                 d="M 4,0 C 1.784,0 0,1.784 0,4 v 50.982422 c 0,2.216 1.784,4 4,4 h 50.982422 c 2.216,0 4,-1.784 4,-4 V 4 c 0,-2.216 -1.784,-4 -4,-4 z M 5.265625,1.0605469 H 53.84375 c 2.216,0 4,1.784 4,4 V 53.810547 c 0,2.216 -1.784,4 -4,4 H 5.265625 c -2.216,0 -4,-1.784 -4,-4 V 5.0605469 c 0,-2.216 1.784,-4 4,-4 z"
                 id="rect88"
                 inkscape:connector-curvature="0" />
            </g>
          </g>
        </g>
      </g>
    </g>
  </g>
</svg>
