<?xml version="1.0" encoding="UTF-8" standalone="no"?>
<!-- Generator: Adobe Illustrator 16.0.0, SVG Export Plug-In . SVG Version: 6.00 Build 0)  -->

<svg
   xmlns:dc="http://purl.org/dc/elements/1.1/"
   xmlns:cc="http://creativecommons.org/ns#"
   xmlns:rdf="http://www.w3.org/1999/02/22-rdf-syntax-ns#"
   xmlns:svg="http://www.w3.org/2000/svg"
   xmlns="http://www.w3.org/2000/svg"
   xmlns:sodipodi="http://sodipodi.sourceforge.net/DTD/sodipodi-0.dtd"
   xmlns:inkscape="http://www.inkscape.org/namespaces/inkscape"
   version="1.1"
   id="Capa_1"
   x="0px"
   y="0px"
   width="58.982px"
   height="58.982px"
   viewBox="0 0 58.982 58.982"
   style="enable-background:new 0 0 58.982 58.982;"
   xml:space="preserve"
   sodipodi:docname="speedometer-false.svg"
   inkscape:version="0.92.2 (5c3e80d, 2017-08-06)"><metadata
     id="metadata3831"><rdf:RDF><cc:Work
         rdf:about=""><dc:format>image/svg+xml</dc:format><dc:type
           rdf:resource="http://purl.org/dc/dcmitype/StillImage" /><dc:title /></cc:Work></rdf:RDF></metadata><defs
     id="defs3829" /><sodipodi:namedview
     pagecolor="#ffffff"
     bordercolor="#666666"
     borderopacity="1"
     objecttolerance="10"
     gridtolerance="10"
     guidetolerance="10"
     inkscape:pageopacity="0"
     inkscape:pageshadow="2"
     inkscape:window-width="937"
     inkscape:window-height="685"
     id="namedview3827"
     showgrid="false"
     inkscape:zoom="8"
     inkscape:cx="42.223052"
     inkscape:cy="28.263114"
     inkscape:window-x="590"
     inkscape:window-y="102"
     inkscape:window-maximized="0"
     inkscape:current-layer="Capa_1"
     inkscape:snap-page="true"
     inkscape:measure-start="15.6875,9.21875"
     inkscape:measure-end="15.6875,6.94129" /><g
     id="g3794"
     transform="matrix(0.84770188,0,0,0.92892678,4.59058,2.1482539)"
     style="fill:#ff0000"><g
       id="_x33_2"
       style="fill:#ff0000"><g
         id="g3791"
         style="fill:#ff0000"><path
           d="m 38.542,24.475 c -1.397,0.48 -13.73,4.799 -16.44,7.982 -1.455,1.713 -2.158,3.891 -1.979,6.133 0.18,2.24 1.221,4.279 2.93,5.736 1.519,1.295 3.454,2.01 5.447,2.01 2.469,0 4.802,-1.08 6.402,-2.959 2.707,-3.188 4.998,-16.07 5.25,-17.529 0.074,-0.429 -0.082,-0.863 -0.414,-1.147 -0.331,-0.283 -0.784,-0.37 -1.196,-0.226 z M 33.029,41.78 c -2.047,2.407 -5.979,2.728 -8.385,0.671 -1.209,-1.031 -1.946,-2.471 -2.072,-4.058 -0.127,-1.587 0.37,-3.128 1.399,-4.339 1.52,-1.786 8.222,-4.652 13.375,-6.542 -1.028,5.29 -2.813,12.5 -4.317,14.268 z M 29.49,5.27 C 13.229,5.27 0,18.709 0,35.23 c 0,6.301 2.059,12.682 5.799,17.962 0.23,0.327 0.604,0.521 1.002,0.521 H 52.18 c 0.398,0 0.772,-0.192 1.002,-0.521 3.741,-5.28 5.801,-11.71 5.801,-18.103 C 58.98,18.647 45.752,5.27 29.49,5.27 Z M 51.537,51.25 H 7.444 C 4.224,46.484 2.457,40.82 2.457,35.229 c 0,-15.162 12.127,-27.5 27.033,-27.5 14.906,0 27.033,12.272 27.033,27.36 0,5.68 -1.766,11.394 -4.986,16.161 z M 29.49,12.352 c -11.419,0 -20.709,9.396 -20.709,20.945 0,0.681 0.55,1.23 1.229,1.23 0.68,0 1.229,-0.551 1.229,-1.23 0,-10.192 8.188,-18.484 18.252,-18.484 10.063,0 18.252,8.263 18.252,18.417 0,0.681 0.55,1.231 1.229,1.231 0.678,0 1.229,-0.551 1.229,-1.231 C 50.2,21.717 40.91,12.352 29.49,12.352 Z"
           id="path3789"
           inkscape:connector-curvature="0"
           style="fill:#ff0000" /></g></g></g><g
     id="g3796" /><g
     id="g3798" /><g
     id="g3800" /><g
     id="g3802" /><g
     id="g3804" /><g
     id="g3806" /><g
     id="g3808" /><g
     id="g3810" /><g
     id="g3812" /><g
     id="g3814" /><g
     id="g3816" /><g
     id="g3818" /><g
     id="g3820" /><g
     id="g3822" /><g
     id="g3824" /><rect
     style="fill:#000000;stroke-width:0.70738345"
     id="rect3853"
     width="1.14"
     height="58.981998"
     x="0"
     y="0" /><rect
     style="fill:#000000;stroke-width:0.75498348"
     id="rect3855"
     width="58.981998"
     height="1.14"
     x="0"
     y="0" /><rect
     style="fill:#000000;stroke-width:0.75498343"
     id="rect3859"
     width="1.14"
     height="58.981998"
     x="57.841999"
     y="0" /><rect
     style="fill:#000000;stroke-width:0.75498343"
     id="rect3861"
     width="58.981998"
     height="1.14"
     x="0"
     y="57.841999" /></svg>