<?xml version="1.0" encoding="UTF-8" standalone="no"?>
<!-- Generator: Adobe Illustrator 16.0.0, SVG Export Plug-In . SVG Version: 6.00 Build 0)  -->

<svg
   xmlns:dc="http://purl.org/dc/elements/1.1/"
   xmlns:cc="http://creativecommons.org/ns#"
   xmlns:rdf="http://www.w3.org/1999/02/22-rdf-syntax-ns#"
   xmlns:svg="http://www.w3.org/2000/svg"
   xmlns="http://www.w3.org/2000/svg"
   xmlns:sodipodi="http://sodipodi.sourceforge.net/DTD/sodipodi-0.dtd"
   xmlns:inkscape="http://www.inkscape.org/namespaces/inkscape"
   version="1.1"
   id="Capa_1"
   x="0px"
   y="0px"
   width="497.25px"
   height="497.25px"
   viewBox="0 0 497.25 497.25"
   style="enable-background:new 0 0 497.25 497.25;"
   xml:space="preserve"
   sodipodi:docname="stopwatch-true-round.svg"
   inkscape:version="0.92.2 (5c3e80d, 2017-08-06)"><metadata
     id="metadata5114"><rdf:RDF><cc:Work
         rdf:about=""><dc:format>image/svg+xml</dc:format><dc:type
           rdf:resource="http://purl.org/dc/dcmitype/StillImage" /><dc:title></dc:title></cc:Work></rdf:RDF></metadata><defs
     id="defs5112" /><sodipodi:namedview
     pagecolor="#ffffff"
     bordercolor="#666666"
     borderopacity="1"
     objecttolerance="10"
     gridtolerance="10"
     guidetolerance="10"
     inkscape:pageopacity="0"
     inkscape:pageshadow="2"
     inkscape:window-width="1068"
     inkscape:window-height="797"
     id="namedview5110"
     showgrid="false"
     inkscape:snap-page="true"
     inkscape:zoom="0.94922071"
     inkscape:cx="183.22275"
     inkscape:cy="244.6589"
     inkscape:window-x="358"
     inkscape:window-y="65"
     inkscape:window-maximized="0"
     inkscape:current-layer="Capa_1" /><g
     id="g5077"
     transform="matrix(0.88983076,0,0,0.91949152,29.621341,20.032839)"
     style="fill:#ff0000"><g
       id="g5075"
       style="fill:#ff0000"><path
         d="m 258.188,250.537 v -107.1 c 0,-5.737 -3.825,-9.562 -9.562,-9.562 -5.737,0 -9.562,3.825 -9.562,9.562 v 107.1 c -11.475,3.825 -19.125,15.301 -19.125,26.775 0,11.474 7.65,22.95 19.125,26.775 v 30.6 c 0,5.737 3.825,9.562 9.562,9.562 5.737,0 9.562,-3.825 9.562,-9.562 v -30.6 c 11.475,-3.825 19.125,-15.301 19.125,-26.775 0,-11.474 -7.651,-22.95 -19.125,-26.775 z m -9.563,36.338 c -5.737,0 -9.562,-3.825 -9.562,-9.562 0,-5.737 3.825,-9.562 9.562,-9.562 5.737,0 9.562,3.825 9.562,9.562 0,5.737 -3.825,9.562 -9.562,9.562 z"
         id="path5071"
         inkscape:connector-curvature="0"
         style="fill:#ff0000" /><path
         d="m 411.188,128.138 22.95,-22.95 13.388,13.388 13.387,-13.388 L 420.75,65.025 407.362,78.413 420.75,91.8 397.8,114.75 C 361.463,80.325 311.738,59.288 258.188,57.375 v -38.25 h 19.125 V 0 h -57.375 v 19.125 h 19.125 v 38.25 C 122.4,63.112 28.688,158.737 28.688,277.312 c 0,122.4 97.538,219.938 219.938,219.938 122.4,0 219.938,-97.537 219.938,-219.938 C 468.562,219.938 447.525,168.3 411.188,128.138 Z M 248.625,478.125 C 137.7,478.125 47.813,388.237 47.813,277.313 47.813,166.389 137.7,76.5 248.625,76.5 c 110.925,0 200.812,89.888 200.812,200.812 0,110.924 -89.887,200.813 -200.812,200.813 z"
         id="path5073"
         inkscape:connector-curvature="0"
         style="fill:#ff0000" /></g></g><g
     id="g5079" /><g
     id="g5081" /><g
     id="g5083" /><g
     id="g5085" /><g
     id="g5087" /><g
     id="g5089" /><g
     id="g5091" /><g
     id="g5093" /><g
     id="g5095" /><g
     id="g5097" /><g
     id="g5099" /><g
     id="g5101" /><g
     id="g5103" /><g
     id="g5105" /><g
     id="g5107" /><g
     id="g93"
     style="fill:#000000"
     transform="matrix(8.3945293,0,0,8.453129,2.0281499,0)"><g
       id="g103"
       style="fill:#000000"><g
         id="g99"
         style="fill:#000000"><g
           id="g113"
           style="fill:#000000"><g
             id="g106"
             style="fill:#000000" /><g
             id="g118"
             style="fill:#000000"><path
               style="fill:#000000"
               d="M 4,0 C 1.784,0 0,1.784 0,4 v 50.982422 c 0,2.216 1.784,4 4,4 h 50.982422 c 2.216,0 4,-1.784 4,-4 V 4 c 0,-2.216 -1.784,-4 -4,-4 z M 5.265625,1.0605469 H 53.84375 c 2.216,0 4,1.784 4,4 V 53.810547 c 0,2.216 -1.784,4 -4,4 H 5.265625 c -2.216,0 -4,-1.784 -4,-4 V 5.0605469 c 0,-2.216 1.784,-4 4,-4 z"
               id="rect88"
               inkscape:connector-curvature="0" /></g></g></g></g></g></svg>